<?xml version="1.0" standalone="no"?>
<!DOCTYPE svg PUBLIC "-//W3C//DTD SVG 20010904//EN"
 "http://www.w3.org/TR/2001/REC-SVG-20010904/DTD/svg10.dtd">
<svg version="1.0" xmlns="http://www.w3.org/2000/svg"
 width="256.000000pt" height="256.000000pt" viewBox="0 0 256.000000 256.000000"
 preserveAspectRatio="xMidYMid meet">
<metadata>
Created by potrace 1.14, written by Peter Selinger 2001-2017
</metadata>
<g transform="translate(0.000000,256.000000) scale(0.100000,-0.100000)"
fill="#000000" stroke="none">
<path d="M793 2490 c-172 -36 -372 -181 -402 -291 -9 -33 -9 -208 -3 -727 l8
-683 35 -33 c38 -37 1088 -683 1126 -692 13 -4 37 -1 54 6 61 26 59 1 59 774
l0 705 -22 25 c-13 13 -255 151 -538 306 -283 154 -519 286 -525 291 -12 13
37 57 110 100 38 22 63 29 104 29 51 0 79 -13 570 -271 284 -148 524 -279 534
-291 16 -19 17 -67 17 -698 l0 -677 26 -27 c16 -15 38 -26 54 -26 30 0 101 43
145 90 l30 31 0 709 c0 684 -1 709 -19 729 -11 12 -287 157 -614 322 -539 273
-599 301 -650 305 -32 1 -76 -1 -99 -6z"/>
</g>
</svg>
